#!OML:ASF F:\VICON\USERDATA\INSTALL\rory3\rory3.ASF
:FULLY-SPECIFIED
:DEGREES
1589
root 0.40092 16.054 1.01555 0.425437 0.0256385 0.123997
lowerback -0.986372 -1.03463 -1.75202
upperback -6.77795 -1.40662 0.552649
thorax -6.42896 -0.581504 1.61966
lowerneck -1.5428 -6.70065 -14.1384
upperneck 29.6038 -10.3067 7.76888
head 10.9474 -5.59362 4.17817
rclavicle 1.02374e-014 -3.8763e-015
rhumerus 88.6808 -58.0066 -48.2953
rradius 36.3873
rwrist -23.1146
rhand -14.9592 8.02983
rfingers 7.12502
rthumb 11.2041 -21.651
lclavicle 1.02374e-014 -3.8763e-015
lhumerus 83.962 55.8315 50.7216
lradius 33.7753
lwrist 42.7589
lhand -8.01885 18.48
lfingers 7.12502
lthumb 17.8907 47.6771
rfemur 4.71861 12.1825 17.3334
rtibia 11.8006
rfoot -12.8844 -15.2253
rtoes -6.12741
lfemur 10.3215 -9.88801 -19.0122
ltibia 1.27222e-014
lfoot -8.01722 10.2915
ltoes -7.28896
1590
root 0.401121 16.0554 1.01087 0.430386 -0.0588228 0.0830581
lowerback -1.04623 -1.02758 -1.71964
upperback -6.72073 -1.39316 0.585085
thorax -6.33369 -0.577264 1.63252
lowerneck -1.50567 -6.72824 -14.162
upperneck 29.5204 -10.3535 7.80287
head 10.9176 -5.61428 4.18892
rclavicle -6.65929e-015 6.95746e-016
rhumerus 88.3563 -57.7026 -48.1272
rradius 36.3944
rwrist -22.3935
rhand -14.6058 7.96433
rfingers 7.12502
rthumb 11.545 -21.6977
lclavicle -6.65929e-015 6.95746e-016
lhumerus 81.87 55.9018 48.542
lradius 33.9601
lwrist 43.6693
lhand -8.14166 18.4814
lfingers 7.12502
lthumb 17.7725 47.6892
rfemur 4.65645 12.2404 17.3638
rtibia 11.8392
rfoot -12.8354 -15.1807
rtoes -6.01691
lfemur 10.3171 -9.79531 -18.9609
ltibia 1.43125e-014
lfoot -8.04113 10.2818
ltoes -7.20957
1591
root 0.400765 16.0552 1.00595 0.379152 -0.169637 0.0413091
lowerback -1.04368 -0.99661 -1.69583
upperback -6.67833 -1.34865 0.628734
thorax -6.29109 -0.555957 1.66216
lowerneck -1.42678 -6.74858 -14.2655
upperneck 29.5393 -10.4053 7.8746
head 10.9277 -5.64489 4.22959
rclavicle -6.68413e-015 -2.68359e-015
rhumerus 87.4222 -57.5667 -47.1526
rradius 36.4388
rwrist -21.9713
rhand -14.394 7.74509
rfingers 7.12502
rthumb 11.7492 -21.9054
lclavicle -6.68413e-015 -2.68359e-015
lhumerus 83.5301 55.594 50.5854
lradius 33.5006
lwrist 42.3203
lhand -7.53933 18.3245
lfingers 7.12502
lthumb 18.352 47.4788
rfemur 4.65928 12.272 17.4007
rtibia 11.8636
rfoot -12.8664 -15.054
rtoes -6.29159
lfemur 10.3839 -9.67671 -18.9215
ltibia 6.36111e-015
lfoot -8.05822 10.2848
ltoes -7.10554
1592
root 0.402615 16.0555 1.00185 0.374946 -0.234487 0.0366994
lowerback -1.08428 -0.971665 -1.67792
upperback -6.67953 -1.31238 0.662803
thorax -6.27009 -0.53814 1.68523
lowerneck -1.17463 -6.75483 -14.4552
upperneck 29.4985 -10.4671 8.01372
head 10.8921 -5.68735 4.31397
rclavicle -3.37934e-015 -1.09332e-015
rhumerus 86.3295 -57.3839 -46.0356
rradius 36.5252
rwrist -21.5052
rhand -14.0902 7.52968
rfingers 7.12502
rthumb 12.0421 -22.1039
lclavicle -3.37934e-015 -1.09332e-015
lhumerus 84.4157 55.3202 51.9101
lradius 33.2791
lwrist 41.2804
lhand -7.11549 18.1826
lfingers 7.12502
lthumb 18.7597 47.298
rfemur 4.65054 12.1719 17.3619
rtibia 11.8166
rfoot -12.782 -14.878
rtoes -6.807
lfemur 10.3984 -9.60147 -18.9286
ltibia -2.38542e-014
lfoot -8.06836 10.2905
ltoes -7.11011
1593
root 0.403477 16.0564 0.997042 0.355913 -0.295948 0.0365146
lowerback -1.11601 -0.961625 -1.65371
upperback -6.63858 -1.29728 0.668854
thorax -6.20902 -0.532864 1.67607
lowerneck -0.960925 -6.76208 -14.5335
upperneck 29.3961 -10.5202 8.10943
head 10.8288 -5.71613 4.36234
rclavicle 3.10601e-015 -1.98785e-015
rhumerus 85.4135 -57.2161 -45.1957
rradius 36.5968
rwrist -20.997
rhand -13.6636 7.57479
rfingers 7.12502
rthumb 12.4534 -22.0342
lclavicle 3.10601e-015 -1.98785e-015
lhumerus 83.2855 55.3094 50.8474
lradius 33.3714
lwrist 41.5281
lhand -7.16655 18.1881
lfingers 7.12502
lthumb 18.7106 47.3082
rfemur 4.64212 12.1444 17.3428
rtibia 11.7991
rfoot -12.6546 -14.8285
rtoes -7.22059
lfemur 10.4046 -9.53163 -18.9319
ltibia -4.77083e-015
lfoot -8.03778 10.2963
ltoes -7.33585
1594
root 0.401887 16.0581 0.991254 0.356981 -0.378752 -0.001348
lowerback -1.10813 -0.939503 -1.62755
upperback -6.60027 -1.26659 0.676837
thorax -6.17418 -0.519529 1.66808
lowerneck -0.829523 -6.80108 -14.5265
upperneck 29.2755 -10.5976 8.14368
head 10.7691 -5.75011 4.36718
rclavicle 1.03865e-014 7.35503e-015
rhumerus 84.4249 -57.0937 -44.2742
rradius 36.6555
rwrist -20.5579
rhand -13.2371 7.65687
rfingers 7.12502
rthumb 12.8646 -21.9267
lclavicle 1.03865e-014 7.35503e-015
lhumerus 82.7181 55.2337 50.3393
lradius 33.3182
lwrist 41.366
lhand -6.85923 18.3847
lfingers 7.12502
lthumb 19.0062 47.4761
rfemur 4.60819 12.2696 17.3971
rtibia 11.7828
rfoot -12.5628 -14.8795
rtoes -7.32185
lfemur 10.3805 -9.44276 -18.8708
ltibia -2.38542e-014
lfoot -7.99713 10.2752
ltoes -7.35143
1595
root 0.401808 16.0594 0.985816 0.368064 -0.440285 -0.000465462
lowerback -1.10197 -0.935901 -1.64616
upperback -6.56679 -1.26119 0.697614
thorax -6.14148 -0.515842 1.69952
lowerneck -0.723309 -6.82679 -14.5647
upperneck 29.1525 -10.6495 8.1867
head 10.7136 -5.77553 4.38501
rclavicle -8.4235e-015 4.57205e-015
rhumerus 83.5957 -56.9154 -43.517
rradius 36.7629
rwrist -20.1054
rhand -12.8097 7.6746
rfingers 7.12502
rthumb 13.2767 -21.8825
lclavicle -8.4235e-015 4.57205e-015
lhumerus 82.5457 55.1537 50.3339
lradius 33.1295
lwrist 40.6917
lhand -6.15458 18.5493
lfingers 7.12502
lthumb 19.6838 47.5727
rfemur 4.56668 12.3024 17.3846
rtibia 11.7564
rfoot -12.487 -14.8537
rtoes -7.28068
lfemur 10.359 -9.37321 -18.8615
ltibia 0
lfoot -7.98902 10.2274
ltoes -7.14482
1596
root 0.403537 16.0593 0.980337 0.36888 -0.452942 -0.0476637
lowerback -1.13938 -0.965287 -1.619
upperback -6.46999 -1.29622 0.748608
thorax -6.01478 -0.53539 1.73652
lowerneck -0.814924 -6.85125 -14.5953
upperneck 29.0958 -10.6803 8.24381
head 10.7188 -5.78371 4.40334
rclavicle 9.26834e-015 1.64991e-014
rhumerus 83.1703 -56.7366 -43.1499
rradius 36.8067
rwrist -19.4947
rhand -12.3851 7.4732
rfingers 7.12502
rthumb 13.6859 -22.0568
lclavicle 9.26834e-015 1.64991e-014
lhumerus 82.817 54.9864 50.9691
lradius 32.8831
lwrist 39.6869
lhand -5.62268 18.46
lfingers 7.12502
lthumb 20.195 47.4302
rfemur 4.55111 12.1792 17.4045
rtibia 11.7307
rfoot -12.4234 -14.7687
rtoes -7.42032
lfemur 10.3464 -9.35106 -18.8175
ltibia 3.81667e-014
lfoot -7.95406 10.237
ltoes -7.10055
1597
root 0.406731 16.0597 0.974987 0.313707 -0.466728 -0.0544612
lowerback -1.04933 -0.987067 -1.5785
upperback -6.40355 -1.32553 0.748029
thorax -5.99522 -0.552822 1.7153
lowerneck -1.01251 -6.91303 -14.5472
upperneck 29.1343 -10.7448 8.22182
head 10.7763 -5.80487 4.37226
rclavicle -2.76311e-014 -5.86415e-015
rhumerus 82.12 -56.5943 -42.1439
rradius 36.8667
rwrist -19.2519
rhand -12.0427 7.27397
rfingers 7.12502
rthumb 14.0159 -22.2335
lclavicle -2.76311e-014 -5.86415e-015
lhumerus 83.3038 54.6026 51.99
lradius 32.7087
lwrist 38.5182
lhand -5.23063 18.3944
lfingers 7.12502
lthumb 20.5718 47.3244
rfemur 4.58699 12.1023 17.3847
rtibia 11.7334
rfoot -12.451 -14.6361
rtoes -6.92015
lfemur 10.3911 -9.32778 -18.8349
ltibia -2.8625e-014
lfoot -7.95212 10.2615
ltoes -7.5444
